<?xml version="1.0" encoding="UTF-8"?>
<svg version="1.1" xmlns="http://www.w3.org/2000/svg" width="1024" height="1024">
<path d="M0 0 C337.92 0 675.84 0 1024 0 C1024 337.92 1024 675.84 1024 1024 C686.08 1024 348.16 1024 0 1024 C0 686.08 0 348.16 0 0 Z " fill="#060606" transform="translate(0,0)"/>
<path d="M0 0 C1.21848129 0.00081573 1.21848129 0.00081573 2.46157837 0.00164795 C14.98272977 0.04012106 26.74545572 0.78950529 38.8125 4.375 C39.56402344 4.58398926 40.31554687 4.79297852 41.08984375 5.00830078 C56.93537646 9.46736195 71.41566621 16.43938997 83.8125 27.375 C84.40804687 27.82875 85.00359375 28.2825 85.6171875 28.75 C102.80142349 42.05392464 113.02381218 65.40047145 115.8125 86.375 C117.53113578 109.18582322 114.55644728 130.63728798 104.8125 151.375 C104.53067871 151.97828125 104.24885742 152.5815625 103.95849609 153.203125 C83.33725395 196.56352813 40.33010553 224.34910556 -3.375 240.5 C-73.78961669 265.52337618 -149.36599898 257.95585349 -217 228.5 C-218.64790527 227.78517456 -218.64790527 227.78517456 -220.32910156 227.0559082 C-221.34069336 226.60691162 -222.35228516 226.15791504 -223.39453125 225.6953125 C-224.74768433 225.09614014 -224.74768433 225.09614014 -226.12817383 224.48486328 C-228.1875 223.375 -228.1875 223.375 -229.1875 221.375 C-224.41881256 222.89430558 -219.72364662 224.52609592 -215.078125 226.390625 C-168.66283416 244.91949322 -114.01564064 250.62936803 -64.78222656 240.88330078 C-62.42984784 240.42247537 -60.079017 240.02225521 -57.7109375 239.65234375 C-31.85823345 235.5090627 -6.37509418 225.1369255 15.8125 211.375 C16.86050781 210.73175781 17.90851562 210.08851563 18.98828125 209.42578125 C26.84090125 204.40458584 33.9107704 198.61249348 40.8125 192.375 C41.57844482 191.68712402 41.57844482 191.68712402 42.35986328 190.98535156 C57.54409289 177.15310896 69.44468433 159.33420191 74.8125 139.375 C75.01617188 138.694375 75.21984375 138.01375 75.4296875 137.3125 C79.87636313 119.76945093 77.12715851 99.99631158 68.56640625 84.18359375 C59.35281109 69.42952934 47.23635523 61.43942238 31.8125 54.375 C30.69746094 53.84777344 29.58242188 53.32054687 28.43359375 52.77734375 C24.03137078 51.07249149 19.69025572 50.12623039 15.0625 49.25 C14.16853516 49.07823242 13.27457031 48.90646484 12.35351562 48.72949219 C6.17084611 47.56996021 0.10971484 46.57281827 -6.1875 46.375 C-7.19006836 46.33632813 -7.19006836 46.33632813 -8.21289062 46.296875 C-80.48964925 43.81100196 -144.29325862 86.32472063 -200.1875 127.375 C-201.71733796 128.49233807 -203.24728832 129.60952225 -204.77734375 130.7265625 C-215.00881576 138.21448266 -225.11304672 145.86119567 -235.1875 153.55859375 C-275.72045236 184.52126569 -318.29589357 215.85145633 -367.33154297 231.75292969 C-369.06162505 232.33280987 -370.76861202 232.98037226 -372.47265625 233.6328125 C-403.455745 245.15634726 -446.71157625 250.54929549 -478.1875 238.375 C-479.22946533 237.9735376 -479.22946533 237.9735376 -480.29248047 237.56396484 C-501.55952665 229.03616408 -519.54265803 214.57428168 -528.67578125 193.24609375 C-534.88328295 177.84737408 -535.8892279 158.10627336 -530.1875 142.375 C-529.83558594 141.39660156 -529.48367188 140.41820312 -529.12109375 139.41015625 C-517.11497886 108.62219827 -491.6547142 88.27077906 -462.21240234 75.15771484 C-453.07234583 71.22460812 -443.81988719 68.25359047 -434.16699219 65.86572266 C-432.42169757 65.43305835 -430.68289682 64.97437674 -428.9453125 64.51171875 C-425.70650034 63.69150009 -422.46750018 63.01157898 -419.1875 62.375 C-418.18009766 62.16979736 -418.18009766 62.16979736 -417.15234375 61.96044922 C-391.14204718 56.87422059 -361.34843629 57.3597734 -335.1875 61.375 C-334.51750977 61.47683594 -333.84751953 61.57867187 -333.15722656 61.68359375 C-329.19030608 62.31332537 -325.26041581 63.07556873 -321.33398438 63.91992188 C-319.00319889 64.41407385 -316.66624353 64.86999248 -314.328125 65.328125 C-294.79301705 69.3123907 -274.06358675 75.47015451 -256.1875 84.375 C-255.8575 85.035 -255.5275 85.695 -255.1875 86.375 C-260.10084771 84.90915008 -265.0109344 83.43528313 -269.90625 81.91015625 C-280.90649617 78.50653861 -291.90409422 75.66447154 -303.1875 73.375 C-304.14398438 73.17132813 -305.10046875 72.96765625 -306.0859375 72.7578125 C-322.20115655 69.53476869 -338.50434994 69.02589978 -354.88452148 69.05932617 C-358.11801721 69.06249316 -361.35060024 69.03889252 -364.58398438 69.01367188 C-377.72062047 68.97351436 -390.28057873 69.91814782 -403.1875 72.375 C-404.25379639 72.57375732 -405.32009277 72.77251465 -406.41870117 72.97729492 C-408.89954291 73.47508872 -411.354594 74.02497339 -413.8125 74.625 C-414.67383545 74.83406982 -415.5351709 75.04313965 -416.42260742 75.25854492 C-436.73049281 80.41335105 -455.67176107 89.52712279 -472.1875 102.375 C-473.01894531 103.00921875 -473.85039062 103.6434375 -474.70703125 104.296875 C-485.69217981 113.30046436 -495.04291236 127.19573611 -497.1875 141.375 C-498.16430893 154.77123681 -496.75354022 165.61692851 -488.5 176.75 C-476.77413449 190.29501847 -457.82508092 198.07251665 -440.1875 199.375 C-377.15225842 202.01101919 -321.87440087 176.1272482 -271.1875 140.375 C-270.06392877 139.59096425 -268.94023526 138.80710371 -267.81640625 138.0234375 C-252.95439442 127.59414791 -238.6764719 116.34184284 -224.36645508 105.17504883 C-219.38267406 101.29021247 -214.35470116 97.47174117 -209.28515625 93.69921875 C-206.24428446 91.41760625 -203.23003169 89.10455516 -200.21875 86.78417969 C-161.99375259 57.37101366 -120.98073835 29.44699349 -75.1875 13.375 C-74.37410156 13.08689453 -73.56070312 12.79878906 -72.72265625 12.50195312 C-63.4331213 9.26053083 -54.04230212 6.74992828 -44.4375 4.625 C-43.53966797 4.42616211 -42.64183594 4.22732422 -41.71679688 4.02246094 C-27.78773701 1.08658173 -14.18977771 -0.03594785 0 0 Z " fill="#FBFBFC" transform="translate(721.1875,365.625)"/>
<path d="M0 0 C0.99 0.495 0.99 0.495 2 1 C-6.26820727 8.77710482 -14.54912012 16.53603546 -22.9375 24.18359375 C-25.20647194 26.26024188 -27.4509227 28.36116587 -29.6875 30.47265625 C-36.90614516 37.28361295 -44.18141141 43.87282527 -52 50 C-53.00289063 50.79792969 -54.00578125 51.59585938 -55.0390625 52.41796875 C-62.39591095 58.22130245 -70.00099098 63.5631529 -77.87890625 68.63427734 C-79.32751528 69.56700282 -80.77269089 70.50507683 -82.21484375 71.44775391 C-101.85859914 84.24683652 -122.79953257 95.24173339 -144.3125 104.5625 C-145.17746094 104.93858398 -146.04242188 105.31466797 -146.93359375 105.70214844 C-148.92872163 106.53592094 -150.96145197 107.27886633 -153 108 C-153.66 107.67 -154.32 107.34 -155 107 C-154.38705078 106.65855957 -153.77410156 106.31711914 -153.14257812 105.96533203 C-133.93870984 95.2466434 -115.67198211 84.09700197 -98 71 C-97.1335083 70.35949707 -97.1335083 70.35949707 -96.24951172 69.70605469 C-90.7601606 65.64148471 -85.33910626 61.49263751 -79.9375 57.3125 C-71.40615181 50.72092193 -62.70283319 44.36233856 -54 38 C-53.25588867 37.4544043 -52.51177734 36.90880859 -51.74511719 36.34667969 C-41.94254522 29.1662848 -31.99886616 22.2244239 -21.93969727 15.40820312 C-14.53988593 10.38941817 -7.23775944 5.24922826 0 0 Z " fill="#F5F5F5" transform="translate(561,486)"/>
<path d="M0 0 C23.24866526 7.51706844 23.24866526 7.51706844 30 11 C30.495 11.99 30.495 11.99 31 13 C25.93891231 11.4847205 20.87926052 9.9650297 15.82421875 8.4296875 C14.97666016 8.17316406 14.12910156 7.91664063 13.25585938 7.65234375 C11.52356055 7.12804342 9.79180011 6.60196137 8.06054688 6.07421875 C4.06228307 4.8670801 0.125967 3.69758617 -4 3 C-2.68 2.67 -1.36 2.34 0 2 C0 1.34 0 0.68 0 0 Z " fill="#D6D6D5" transform="translate(435,439)"/>
<path d="M0 0 C1.75140143 0.45294865 3.50107344 0.91258748 5.25 1.375 C6.71179688 1.75785156 6.71179688 1.75785156 8.203125 2.1484375 C10.65837303 2.89598509 12.75617405 3.77123817 15 5 C14.67 5.66 14.34 6.32 14 7 C12.41531323 6.54636829 10.83230076 6.08688548 9.25 5.625 C8.36828125 5.36976563 7.4865625 5.11453125 6.578125 4.8515625 C4.23919428 4.0790066 2.16557438 3.16374324 0 2 C0 1.34 0 0.68 0 0 Z " fill="#E4E3E3" transform="translate(514,596)"/>
<path d="M0 0 C0 0.66 0 1.32 0 2 C-2.45404224 3.19716659 -4.91251679 4.3829346 -7.375 5.5625 C-8.42300781 6.07586914 -8.42300781 6.07586914 -9.4921875 6.59960938 C-11.30052216 7.46030712 -13.14851956 8.23652436 -15 9 C-15.66 8.67 -16.32 8.34 -17 8 C-14.73354942 6.65869239 -12.46239903 5.32683766 -10.1875 4 C-9.54490234 3.6184375 -8.90230469 3.236875 -8.24023438 2.84375 C-3.33984375 0 -3.33984375 0 0 0 Z " fill="#C8C8C8" transform="translate(423,585)"/>
<path d="M0 0 C0.66 0.33 1.32 0.66 2 1 C-1.96 4.465 -1.96 4.465 -6 8 C-6.99 7.34 -7.98 6.68 -9 6 C-6.03 4.02 -3.06 2.04 0 0 Z " fill="#D8D7D8" transform="translate(561,486)"/>
<path d="M0 0 C2.31 0.33 4.62 0.66 7 1 C6.67 1.99 6.34 2.98 6 4 C4.02 3.34 2.04 2.68 0 2 C0 1.34 0 0.68 0 0 Z " fill="#ECECEB" transform="translate(522,599)"/>
</svg>
